<svg 
 xmlns="http://www.w3.org/2000/svg"
 xmlns:xlink="http://www.w3.org/1999/xlink"
 width="96px" height="96px">
<path fill-rule="evenodd"  fill="rgb(205, 23, 30)"
 d="M48.000,30.000 C58.528,30.000 67.062,38.535 67.062,49.063 C67.062,59.590 58.528,68.125 48.000,68.125 C37.472,68.125 28.937,59.590 28.937,49.063 C28.937,38.535 37.472,30.000 48.000,30.000 Z"/>
<path fill-rule="evenodd"  opacity="0.459" fill="rgb(205, 23, 30)"
 d="M48.000,9.187 C69.436,9.187 86.813,26.564 86.813,48.000 C86.813,69.436 69.436,86.813 48.000,86.813 C26.564,86.813 9.188,69.436 9.188,48.000 C9.188,26.564 26.564,9.187 48.000,9.187 Z"/>
<path fill-rule="evenodd"  opacity="0.09" fill="rgb(205, 23, 30)"
 d="M48.000,0.000 C74.510,0.000 96.000,21.490 96.000,48.000 C96.000,74.510 74.510,96.000 48.000,96.000 C21.490,96.000 0.000,74.510 0.000,48.000 C0.000,21.490 21.490,0.000 48.000,0.000 Z"/>
<path fill-rule="evenodd"  opacity="0.459" fill="rgb(205, 23, 30)"
 d="M47.344,19.469 C63.326,19.469 76.281,32.425 76.281,48.406 C76.281,64.388 63.326,77.344 47.344,77.344 C31.362,77.344 18.406,64.388 18.406,48.406 C18.406,32.425 31.362,19.469 47.344,19.469 Z"/>
<text kerning="auto" font-family="Myriad Pro" fill="rgb(0, 0, 0)" transform="matrix( 2.52531082818927, 0, 0, 2.52531082818928,39.8381838593108, 63.8892095550409)" font-size="14.064px"><tspan font-size="14.064px" font-family="Open Sans" font-weight="bold" fill="#FFFFFF">&#36;</tspan></text>
</svg>