<svg 
 xmlns="http://www.w3.org/2000/svg"
 xmlns:xlink="http://www.w3.org/1999/xlink"
 width="290px" height="184px">
<defs>
<filter id="Filter_0">
    <feFlood flood-color="rgb(53, 154, 192)" flood-opacity="1" result="floodOut" />
    <feComposite operator="atop" in="floodOut" in2="SourceGraphic" result="compOut" />
    <feBlend mode="normal" in="compOut" in2="SourceGraphic" />
</filter>
<filter id="Filter_1">
    <feFlood flood-color="rgb(53, 154, 192)" flood-opacity="1" result="floodOut" />
    <feComposite operator="atop" in="floodOut" in2="SourceGraphic" result="compOut" />
    <feBlend mode="normal" in="compOut" in2="SourceGraphic" />
</filter>
<filter id="Filter_2">
    <feFlood flood-color="rgb(53, 154, 192)" flood-opacity="1" result="floodOut" />
    <feComposite operator="atop" in="floodOut" in2="SourceGraphic" result="compOut" />
    <feBlend mode="normal" in="compOut" in2="SourceGraphic" />
</filter>
<filter id="Filter_3">
    <feFlood flood-color="rgb(53, 154, 192)" flood-opacity="1" result="floodOut" />
    <feComposite operator="atop" in="floodOut" in2="SourceGraphic" result="compOut" />
    <feBlend mode="normal" in="compOut" in2="SourceGraphic" />
</filter>
<filter id="Filter_4">
    <feFlood flood-color="rgb(53, 154, 192)" flood-opacity="1" result="floodOut" />
    <feComposite operator="atop" in="floodOut" in2="SourceGraphic" result="compOut" />
    <feBlend mode="normal" in="compOut" in2="SourceGraphic" />
</filter>
<filter id="Filter_5">
    <feFlood flood-color="rgb(53, 154, 192)" flood-opacity="1" result="floodOut" />
    <feComposite operator="atop" in="floodOut" in2="SourceGraphic" result="compOut" />
    <feBlend mode="normal" in="compOut" in2="SourceGraphic" />
</filter>
<filter id="Filter_6">
    <feFlood flood-color="rgb(53, 154, 192)" flood-opacity="1" result="floodOut" />
    <feComposite operator="atop" in="floodOut" in2="SourceGraphic" result="compOut" />
    <feBlend mode="normal" in="compOut" in2="SourceGraphic" />
</filter>
<filter id="Filter_7">
    <feFlood flood-color="rgb(53, 154, 192)" flood-opacity="1" result="floodOut" />
    <feComposite operator="atop" in="floodOut" in2="SourceGraphic" result="compOut" />
    <feBlend mode="normal" in="compOut" in2="SourceGraphic" />
</filter>
<filter id="Filter_8">
    <feFlood flood-color="rgb(53, 154, 192)" flood-opacity="1" result="floodOut" />
    <feComposite operator="atop" in="floodOut" in2="SourceGraphic" result="compOut" />
    <feBlend mode="normal" in="compOut" in2="SourceGraphic" />
</filter>
<filter id="Filter_9">
    <feFlood flood-color="rgb(53, 154, 192)" flood-opacity="1" result="floodOut" />
    <feComposite operator="atop" in="floodOut" in2="SourceGraphic" result="compOut" />
    <feBlend mode="normal" in="compOut" in2="SourceGraphic" />
</filter>
<filter id="Filter_10">
    <feFlood flood-color="rgb(53, 154, 192)" flood-opacity="1" result="floodOut" />
    <feComposite operator="atop" in="floodOut" in2="SourceGraphic" result="compOut" />
    <feBlend mode="normal" in="compOut" in2="SourceGraphic" />
</filter>
<filter id="Filter_11">
    <feFlood flood-color="rgb(53, 154, 192)" flood-opacity="1" result="floodOut" />
    <feComposite operator="atop" in="floodOut" in2="SourceGraphic" result="compOut" />
    <feBlend mode="normal" in="compOut" in2="SourceGraphic" />
</filter>
<filter id="Filter_12">
    <feFlood flood-color="rgb(53, 154, 192)" flood-opacity="1" result="floodOut" />
    <feComposite operator="atop" in="floodOut" in2="SourceGraphic" result="compOut" />
    <feBlend mode="normal" in="compOut" in2="SourceGraphic" />
</filter>
<filter id="Filter_13">
    <feFlood flood-color="rgb(53, 154, 192)" flood-opacity="1" result="floodOut" />
    <feComposite operator="atop" in="floodOut" in2="SourceGraphic" result="compOut" />
    <feBlend mode="normal" in="compOut" in2="SourceGraphic" />
</filter>
<filter id="Filter_14">
    <feFlood flood-color="rgb(53, 154, 192)" flood-opacity="1" result="floodOut" />
    <feComposite operator="atop" in="floodOut" in2="SourceGraphic" result="compOut" />
    <feBlend mode="normal" in="compOut" in2="SourceGraphic" />
</filter>
<filter id="Filter_15">
    <feFlood flood-color="rgb(53, 154, 192)" flood-opacity="1" result="floodOut" />
    <feComposite operator="atop" in="floodOut" in2="SourceGraphic" result="compOut" />
    <feBlend mode="normal" in="compOut" in2="SourceGraphic" />
</filter>
<filter id="Filter_16">
    <feFlood flood-color="rgb(53, 154, 192)" flood-opacity="1" result="floodOut" />
    <feComposite operator="atop" in="floodOut" in2="SourceGraphic" result="compOut" />
    <feBlend mode="normal" in="compOut" in2="SourceGraphic" />
</filter>

</defs>
<g filter="url(#Filter_0)">
<path fill-rule="evenodd"  fill="rgb(235, 235, 235)"
 d="M194.250,39.219 C215.824,39.219 233.313,57.008 233.313,78.953 C233.313,100.898 215.824,118.687 194.250,118.687 C172.676,118.687 155.188,100.898 155.188,78.953 C155.188,57.008 172.676,39.219 194.250,39.219 Z"/>
</g>
<g filter="url(#Filter_1)">
<path fill-rule="evenodd"  fill="rgb(235, 235, 235)"
 d="M64.531,87.312 C80.720,87.312 93.844,100.660 93.844,117.125 C93.844,133.590 80.720,146.938 64.531,146.938 C48.342,146.938 35.219,133.590 35.219,117.125 C35.219,100.660 48.342,87.312 64.531,87.312 Z"/>
</g>
<g filter="url(#Filter_2)">
<path fill-rule="evenodd"  fill="rgb(235, 235, 235)"
 d="M260.688,62.656 C276.859,62.656 289.969,76.011 289.969,92.484 C289.969,108.958 276.859,122.312 260.688,122.312 C244.516,122.312 231.406,108.958 231.406,92.484 C231.406,76.011 244.516,62.656 260.688,62.656 Z"/>
</g>
<g filter="url(#Filter_3)">
<path fill-rule="evenodd"  fill="rgb(235, 235, 235)"
 d="M87.188,54.344 C97.992,54.344 106.750,63.235 106.750,74.203 C106.750,85.171 97.992,94.062 87.188,94.062 C76.383,94.062 67.625,85.171 67.625,74.203 C67.625,63.235 76.383,54.344 87.188,54.344 Z"/>
</g>
<g filter="url(#Filter_4)">
<path fill-rule="evenodd"  fill="rgb(235, 235, 235)"
 d="M70.187,143.344 C80.992,143.344 89.750,152.235 89.750,163.203 C89.750,174.171 80.992,183.062 70.187,183.062 C59.383,183.062 50.625,174.171 50.625,163.203 C50.625,152.235 59.383,143.344 70.187,143.344 Z"/>
</g>
<g filter="url(#Filter_5)">
<path fill-rule="evenodd"  fill="rgb(235, 235, 235)"
 d="M180.188,6.344 C190.992,6.344 199.750,15.235 199.750,26.203 C199.750,37.171 190.992,46.062 180.188,46.062 C169.383,46.062 160.625,37.171 160.625,26.203 C160.625,15.235 169.383,6.344 180.188,6.344 Z"/>
</g>
<g filter="url(#Filter_6)">
<path fill-rule="evenodd"  fill="rgb(235, 235, 235)"
 d="M226.297,106.781 C237.075,106.781 245.813,115.680 245.813,126.656 C245.813,137.633 237.075,146.531 226.297,146.531 C215.519,146.531 206.781,137.633 206.781,126.656 C206.781,115.680 215.519,106.781 226.297,106.781 Z"/>
</g>
<g filter="url(#Filter_7)">
<path fill-rule="evenodd"  fill="rgb(235, 235, 235)"
 d="M130.969,71.812 C152.560,71.812 170.063,89.609 170.063,111.562 C170.063,133.516 152.560,151.313 130.969,151.313 C109.378,151.313 91.875,133.516 91.875,111.562 C91.875,89.609 109.378,71.812 130.969,71.812 Z"/>
</g>
<g filter="url(#Filter_8)">
<path fill-rule="evenodd"  fill="rgb(235, 235, 235)"
 d="M20.328,86.250 C31.124,86.250 39.875,95.155 39.875,106.141 C39.875,117.126 31.124,126.031 20.328,126.031 C9.533,126.031 0.781,117.126 0.781,106.141 C0.781,95.155 9.533,86.250 20.328,86.250 Z"/>
</g>
<g filter="url(#Filter_9)">
<path fill-rule="evenodd"  fill="rgb(235, 235, 235)"
 d="M241.141,28.875 C251.936,28.875 260.688,37.773 260.688,48.750 C260.688,59.727 251.936,68.625 241.141,68.625 C230.345,68.625 221.594,59.727 221.594,48.750 C221.594,37.773 230.345,28.875 241.141,28.875 Z"/>
</g>
<g filter="url(#Filter_10)">
<path fill-rule="evenodd"  fill="rgb(235, 235, 235)"
 d="M107.516,143.344 C118.311,143.344 127.063,152.242 127.063,163.219 C127.063,174.195 118.311,183.094 107.516,183.094 C96.720,183.094 87.969,174.195 87.969,163.219 C87.969,152.242 96.720,143.344 107.516,143.344 Z"/>
</g>
<g filter="url(#Filter_11)">
<path fill-rule="evenodd"  fill="rgb(235, 235, 235)"
 d="M90.313,16.937 C101.099,16.937 109.844,25.843 109.844,36.828 C109.844,47.813 101.099,56.719 90.313,56.719 C79.526,56.719 70.781,47.813 70.781,36.828 C70.781,25.843 79.526,16.937 90.313,16.937 Z"/>
</g>
<g filter="url(#Filter_12)">
<path fill-rule="evenodd"  fill="rgb(235, 235, 235)"
 d="M261.313,120.938 C272.099,120.938 280.844,129.843 280.844,140.828 C280.844,151.813 272.099,160.719 261.313,160.719 C250.526,160.719 241.781,151.813 241.781,140.828 C241.781,129.843 250.526,120.938 261.313,120.938 Z"/>
</g>
<g filter="url(#Filter_13)">
<path fill-rule="evenodd"  fill="rgb(235, 235, 235)"
 d="M215.313,0.937 C226.099,0.937 234.844,9.843 234.844,20.828 C234.844,31.813 226.099,40.719 215.313,40.719 C204.526,40.719 195.781,31.813 195.781,20.828 C195.781,9.843 204.526,0.937 215.313,0.937 Z"/>
</g>
<g filter="url(#Filter_14)">
<path fill-rule="evenodd"  fill="rgb(235, 235, 235)"
 d="M40.297,35.656 C56.477,35.656 69.594,48.997 69.594,65.453 C69.594,81.910 56.477,95.250 40.297,95.250 C24.117,95.250 11.000,81.910 11.000,65.453 C11.000,48.997 24.117,35.656 40.297,35.656 Z"/>
</g>
<g filter="url(#Filter_15)">
<path fill-rule="evenodd"  fill="rgb(235, 235, 235)"
 d="M137.203,14.188 C153.383,14.188 166.500,27.535 166.500,44.000 C166.500,60.465 153.383,73.812 137.203,73.812 C121.023,73.812 107.906,60.465 107.906,44.000 C107.906,27.535 121.023,14.188 137.203,14.188 Z"/>
</g>
<g filter="url(#Filter_16)">
<path fill-rule="evenodd"  fill="rgb(235, 235, 235)"
 d="M186.438,116.750 C202.609,116.750 215.719,130.090 215.719,146.547 C215.719,163.003 202.609,176.344 186.438,176.344 C170.266,176.344 157.156,163.003 157.156,146.547 C157.156,130.090 170.266,116.750 186.438,116.750 Z"/>
</g>
</svg>