<svg 
 xmlns="http://www.w3.org/2000/svg"
 xmlns:xlink="http://www.w3.org/1999/xlink"
 width="101.5px" height="147px">
<defs>
<filter id="Filter_0">
    <feFlood flood-color="rgb(194, 194, 194)" flood-opacity="1" result="floodOut" />
    <feComposite operator="atop" in="floodOut" in2="SourceGraphic" result="compOut" />
    <feBlend mode="normal" in="compOut" in2="SourceGraphic" />
</filter>
<filter id="Filter_1">
    <feFlood flood-color="rgb(194, 194, 194)" flood-opacity="1" result="floodOut" />
    <feComposite operator="atop" in="floodOut" in2="SourceGraphic" result="compOut" />
    <feBlend mode="normal" in="compOut" in2="SourceGraphic" />
</filter>
<filter id="Filter_2">
    <feFlood flood-color="rgb(194, 194, 194)" flood-opacity="1" result="floodOut" />
    <feComposite operator="atop" in="floodOut" in2="SourceGraphic" result="compOut" />
    <feBlend mode="normal" in="compOut" in2="SourceGraphic" />
</filter>
<filter id="Filter_3">
    <feFlood flood-color="rgb(255, 255, 255)" flood-opacity="1" result="floodOut" />
    <feComposite operator="atop" in="floodOut" in2="SourceGraphic" result="compOut" />
    <feBlend mode="normal" in="compOut" in2="SourceGraphic" />
</filter>
<filter id="Filter_4">
    <feFlood flood-color="rgb(255, 255, 255)" flood-opacity="1" result="floodOut" />
    <feComposite operator="atop" in="floodOut" in2="SourceGraphic" result="compOut" />
    <feBlend mode="normal" in="compOut" in2="SourceGraphic" />
</filter>

</defs>
<g filter="url(#Filter_0)">
<path fill-rule="evenodd"  fill="rgb(0, 153, 255)"
 d="M89.381,8.417 L91.771,9.796 L36.111,138.072 L33.721,136.692 L89.381,8.417 Z"/>
</g>
<g filter="url(#Filter_1)">
<path fill-rule="evenodd"  fill="rgb(0, 153, 255)"
 d="M13.531,8.375 L88.969,8.375 L88.969,11.156 L13.531,11.156 L13.531,8.375 Z"/>
</g>
<g filter="url(#Filter_2)">
<path fill-rule="evenodd"  fill="rgb(249, 157, 28)"
 d="M0.647,9.304 L17.206,2.865 L17.206,15.744 L0.647,9.304 Z"/>
</g>
<g filter="url(#Filter_3)">
<path fill-rule="evenodd"  stroke-width="3px" stroke="rgb(194, 194, 194)" fill="rgb(249, 157, 28)"
 d="M34.222,131.670 C36.508,131.670 38.362,133.523 38.362,135.808 C38.362,138.094 36.508,139.946 34.222,139.946 C31.936,139.946 30.083,138.094 30.083,135.808 C30.083,133.523 31.936,131.670 34.222,131.670 Z"/>
</g>
<g filter="url(#Filter_4)">
<path fill-rule="evenodd"  stroke-width="3px" stroke="rgb(194, 194, 194)" fill="rgb(249, 157, 28)"
 d="M90.342,6.550 C92.628,6.550 94.482,8.403 94.482,10.688 C94.482,12.974 92.628,14.826 90.342,14.826 C88.056,14.826 86.203,12.974 86.203,10.688 C86.203,8.403 88.056,6.550 90.342,6.550 Z"/>
</g>
</svg>